<?xml version="1.0" encoding="iso-8859-1"?>
<!-- Generator: Adobe Illustrator 19.0.0, SVG Export Plug-In . SVG Version: 6.00 Build 0)  -->
<svg version="1.1" id="Layer_1" xmlns="http://www.w3.org/2000/svg" xmlns:xlink="http://www.w3.org/1999/xlink" x="0px" y="0px"
	 viewBox="0 0 512 512" style="enable-background:new 0 0 512 512;" xml:space="preserve">
<circle style="fill:#A7D9FF;" cx="256" cy="256" r="256"/>
<path style="fill:#DCF0FF;" d="M180.187,47.562c0-5.92,4.799-10.719,10.719-10.719c0.893,0,1.748,0.141,2.577,0.347
	c2.797-3.02,6.763-4.941,11.204-4.941c8.457,0,15.313,6.856,15.313,15.313H180.187z"/>
<path style="fill:#FFFFFF;" d="M305.458,51.766c0-4.393,3.561-7.954,7.954-7.954c0.663,0,1.297,0.105,1.913,0.258
	c2.075-2.241,5.018-3.666,8.314-3.666c6.275,0,11.362,5.087,11.362,11.362H305.458z"/>
<path style="fill:#DCF0FF;" d="M255.25,64.25c0-8.089,6.557-14.646,14.646-14.646c1.221,0,2.388,0.193,3.522,0.475
	c3.822-4.127,9.24-6.751,15.309-6.751c11.555,0,20.923,9.368,20.923,20.923L255.25,64.25L255.25,64.25z"/>
<g>
	<path style="fill:#FFFFFF;" d="M195.238,45.286c-1.289,0-2.507,0.254-3.675,0.622c-3.699-5.317-9.834-8.812-16.801-8.812
		s-13.103,3.496-16.801,8.812c-1.168-0.368-2.386-0.622-3.675-0.622c-6.785,0-12.286,5.5-12.286,12.286h65.524
		C207.524,50.787,202.023,45.286,195.238,45.286z"/>
	<path style="fill:#FFFFFF;" d="M207.333,214.071c-0.759,0-1.476,0.149-2.163,0.366c-2.177-3.129-5.788-5.187-9.889-5.187
		s-7.712,2.057-9.889,5.187c-0.687-0.217-1.404-0.366-2.163-0.366c-3.993,0-7.231,3.237-7.231,7.231h38.564
		C214.564,217.308,211.327,214.071,207.333,214.071z"/>
</g>
<path style="fill:#DCF0FF;" d="M226.4,236.5c0-6.186,5.014-11.2,11.2-11.2c0.934,0,1.826,0.148,2.693,0.363
	c2.922-3.156,7.066-5.163,11.707-5.163c8.837,0,16,7.163,16,16L226.4,236.5L226.4,236.5z"/>
<polygon style="fill:#8ECA74;" points="128,230 264,278 264,304 128,304 "/>
<rect x="128" y="296" style="fill:#73BE6E;" width="136" height="24"/>
<path style="fill:#E6C35A;" d="M133,233.941c21.612,15.251,88,47.392,131.667,52.341v-27.127
	c-33.995-7.498-96.865-23.105-131.667-42.604L133,233.941L133,233.941z"/>
<path style="fill:#87CDD2;" d="M8.065,320C36.484,430.415,136.714,512,256,512s219.516-81.585,247.935-192H8.065z"/>
<rect x="132.63" y="128" style="fill:#5F4648;" width="4.767" height="9"/>
<path style="fill:#73BE6E;" d="M150.025,113.778c0,8.291-6.721,15.013-15.013,15.013S120,122.069,120,113.778
	s6.721-33.779,15.013-33.779S150.025,105.487,150.025,113.778z"/>
<path style="fill:#8ECA74;" d="M135.013,79.999c-2.081,0-4.063,1.609-5.865,4.146l0,0c7.589,0,13.74,23.327,13.74,30.916
	c0,6.601-4.659,12.105-10.865,13.428c0.966,0.195,1.965,0.301,2.989,0.301c8.291,0,15.013-6.721,15.013-15.013
	C150.026,105.487,143.304,79.999,135.013,79.999z"/>
<rect x="225.63" y="109" style="fill:#5F4648;" width="4.767" height="11"/>
<path style="fill:#E6AA55;" d="M243.025,95.278c0,8.291-6.721,15.013-15.013,15.013c-8.291,0-15.013-6.721-15.013-15.013
	S219.721,61.5,228.013,61.5C236.304,61.5,243.025,86.987,243.025,95.278z"/>
<path style="fill:#E6C35A;" d="M228.013,61.5c-2.081,0-4.063,1.609-5.865,4.146l0,0c7.589,0,13.74,23.327,13.74,30.916
	c0,6.601-4.659,12.105-10.865,13.428c0.966,0.195,1.965,0.301,2.989,0.301c8.291,0,15.013-6.721,15.013-15.012
	C243.025,86.987,236.304,61.5,228.013,61.5z"/>
<rect x="249.92" y="105" style="fill:#5F4648;" width="5.959" height="8"/>
<path style="fill:#73BE6E;" d="M271.668,87.723c0,10.364-8.402,18.766-18.766,18.766s-18.766-8.402-18.766-18.766
	S242.538,45.5,252.902,45.5S271.668,77.359,271.668,87.723z"/>
<path style="fill:#8ECA74;" d="M252.902,45.5c-2.602,0-5.079,2.011-7.332,5.182h0.001c9.486,0,17.175,29.159,17.175,38.645
	c0,8.251-5.823,15.131-13.581,16.785c1.208,0.244,2.456,0.377,3.736,0.377c10.364,0,18.766-8.402,18.766-18.766
	C271.668,77.359,263.266,45.5,252.902,45.5z"/>
<path style="fill:#6EAA64;" d="M320,81.473c0,10.364-8.402,18.766-18.766,18.766s-18.766-8.402-18.766-18.766
	s8.402-42.223,18.766-42.223S320,71.109,320,81.473z"/>
<path style="fill:#73BE6E;" d="M301.234,39.25c-2.602,0-5.079,2.011-7.332,5.182h0.001c9.486,0,17.175,29.159,17.175,38.645
	c0,8.251-5.823,15.131-13.581,16.785c1.208,0.244,2.456,0.377,3.736,0.377c10.364,0,18.766-8.402,18.766-18.766
	C320,71.109,311.598,39.25,301.234,39.25z"/>
<rect x="184.78" y="122" style="fill:#5F4648;" width="4.171" height="7"/>
<path style="fill:#6EAA64;" d="M200,109.556c0,7.255-5.881,13.136-13.136,13.136s-13.136-5.881-13.136-13.136
	c0-7.255,5.881-29.556,13.136-29.556S200,102.301,200,109.556z"/>
<path style="fill:#73BE6E;" d="M186.864,80c-1.821,0-3.555,1.408-5.132,3.628l0,0c6.64,0,12.023,20.411,12.023,27.051
	c0,5.776-4.076,10.591-9.507,11.75c0.846,0.171,1.719,0.264,2.615,0.264c7.255,0,13.136-5.881,13.136-13.136
	C200,102.301,194.119,80,186.864,80z"/>
<path style="fill:#C6B9B7;" d="M512,256c0-85.975-42.426-161.992-107.437-208.417C315,130.333,120,152,96,152v48c0,0,112,0,152,8
	c29.843,5.969,10.703,83.186-0.942,122.016C243.286,342.592,202,338.87,202,352c0,22,50.5,25.5,134,48
	c69.948,18.848,50.309,59.162,39.045,82.628C456.458,439.773,512,354.395,512,256z"/>
<path style="fill:#A59191;" d="M426.667,366C371.5,345,379,307.5,368,304c-12.25-3.898-8.359,21.628-18,19.333
	C336,320,352,240,336,248c-13.337,6.669-16.957,94.888-35.251,92.637C289.684,339.276,298.08,318.246,300,308c6-32,35-109-3-134
	s-147,19-166,26l0.169,0.378c36.35,0.666,91.272,2.51,116.831,7.622c26.264,5.252,12.525,69.446,0,104
	c-1.703,4.697-9.66,20.564-36.5,30c-12.185,4.284-9.5,10-9.5,10c3.5,21.5,209.5,15.5,259.191,56.836
	c3.919-5.249,7.671-10.624,11.186-16.172C461.529,382.238,444.601,372.827,426.667,366z"/>
<path style="fill:#6EAA64;" d="M512,256c0-85.975-42.426-161.992-107.437-208.417C370.085,70.374,245.333,136,127.336,146L131,166
	c160-33,210-17,232,1s21.205,106.682,33,146c13.809,46.029,58.101,31.13,92.359,50.305C503.473,330.66,512,294.345,512,256z"/>
<g>
	<path style="fill:#73BE6E;" d="M394.556,40.788C258.91,132.405,128,136,128,136s-3.631,10.859-1.333,10.667
		c101.998-8.533,176.667-36,224.667-32c17.938,1.495,30,6.667,51.333,28.667c15.196,15.67,34,2.666,33.333-11.334c0,0,28,78,52,99
		c7.146,6.252,15.244,9.584,23.592,10.843C506.99,157.433,461.475,83.961,394.556,40.788z"/>
	<path style="fill:#73BE6E;" d="M185.833,364.667C188.167,338.167,153,313,144,288c-6.059-16.831-16-192-24-208
		c-3.104-6.208-13.448-14.82-24.931-23.042C37.095,103.89,0,175.599,0,256c0,67.289,25.999,128.478,68.45,174.169
		C120.324,411.66,184.49,379.927,185.833,364.667z"/>
</g>
<path style="fill:#C6B9B7;" d="M21.797,152.729c8.367,12.096,19.5,31.834,23.537,39.271c13.375,24.639,21.23,21.293,25.667,10
	c5.5-14,14.562-13.402,17.877-2.944c8.034,56.265,36.456,139.611,57.79,134.277c9.02-2.255,3.667-25.667,0-45.333
	C141.059,257.924,128,96,120,80c-3.104-6.208-13.448-14.82-24.931-23.042C63.606,82.428,38.369,115.236,21.797,152.729z"/>
<path style="fill:#6EAA64;" d="M101.333,317.492C89.644,294.305,74.328,243.734,66,241.333C47.5,236,29,244,3.413,216
	c-2.176,13.33-3.358,26.992-3.39,40.931c0.242,67.469,26.61,128.747,69.481,174.344c51.646-18.536,112.065-48.05,116.496-62.608
	c2.333-7.667-0.025-22.847-11.025-34.847C178.263,382.722,121.5,357.492,101.333,317.492z"/>
<path style="fill:#558C73;" d="M46.793,403.452l75.302-15.025c0,0-52.85-105.797-120.198-101.727
	C7.056,329.834,22.926,369.652,46.793,403.452z"/>
<rect x="67.03" y="353.5" style="fill:#5F4648;" width="10.13" height="26.833"/>
<path style="fill:#73BE6E;" d="M104,327.779c0,17.619-14.283,31.902-31.902,31.902s-31.902-14.283-31.902-31.902
	S54.479,256,72.098,256S104,310.16,104,327.779z"/>
<path style="fill:#8ECA74;" d="M72.098,256c-4.423,0-8.634,3.419-12.463,8.81h0.001c16.126,0,29.198,49.57,29.198,65.696
	c0,14.027-9.899,25.722-23.087,28.535c2.053,0.415,4.176,0.64,6.352,0.64c17.619,0,31.902-14.283,31.902-31.901
	C104,310.16,89.717,256,72.098,256z"/>
<path style="fill:#5F4648;" d="M443.034,365v33.18c3.24,1.412,7.35,3.451,10.13,5.114V365H443.034z"/>
<path style="fill:#73BE6E;" d="M480,336.779c0,17.619-14.283,31.902-31.902,31.902s-31.902-14.283-31.902-31.902
	S430.479,265,448.098,265S480,319.16,480,336.779z"/>
<path style="fill:#8ECA74;" d="M448.098,265c-4.423,0-8.634,3.419-12.464,8.81h0.001c16.126,0,29.198,49.57,29.198,65.696
	c0,14.027-9.899,25.722-23.087,28.535c2.053,0.415,4.176,0.64,6.352,0.64c17.619,0,31.902-14.283,31.902-31.902
	C480,319.16,465.717,265,448.098,265z"/>
<rect x="114.94" y="367.17" style="fill:#5F4648;" width="7.151" height="16.333"/>
<path style="fill:#E6AA55;" d="M141.038,346.668c0,12.437-10.082,22.519-22.519,22.519S96,359.104,96,346.668
	S106.082,296,118.519,296S141.038,334.231,141.038,346.668z"/>
<path style="fill:#E6C35A;" d="M118.519,296c-3.122,0-6.095,2.413-8.798,6.219h0.001c11.383,0,20.611,34.991,20.611,46.374
	c0,9.901-6.988,18.157-16.297,20.142c1.45,0.293,2.948,0.452,4.484,0.452c12.437,0,22.519-10.082,22.519-22.519
	C141.038,334.23,130.956,296,118.519,296z"/>
<path style="fill:#8ECA74;" d="M112,384c0,0-46.917-19.986-73.258,7.366c11.877,19.022,26.18,36.36,42.48,51.604L160,400
	C160,400,144,368,112,384z"/>
<path style="fill:#73BE6E;" d="M81.044,442.792c0.063,0.059,0.131,0.11,0.194,0.168l66.398-36.217
	c-5.726-8.75-18.194-19.832-43.636-14.744c0,0-31.756-18.919-61.318,5.238c0.815,1.228,1.627,2.458,2.462,3.671
	c2.053,2.981,4.169,5.915,6.344,8.803c1.546,2.054,3.099,4.104,4.706,6.109c2.362,2.948,4.82,5.812,7.308,8.65
	c1.552,1.771,3.066,3.575,4.666,5.303c3.251,3.51,6.631,6.896,10.072,10.22C79.189,440.911,80.08,441.889,81.044,442.792z"/>
<path style="fill:#5F4648;" d="M476.933,328v57.275c5.169-8.814,9.838-17.953,13.941-27.399V328H476.933z"/>
<path style="fill:#E6AA55;" d="M483.902,188.843c-24.247,0-43.902,74.533-43.902,98.779c0,24.247,19.655,43.902,43.902,43.902
	c6.327,0,12.327-1.365,17.761-3.774C508.34,304.983,512,280.933,512,256c0-14.453-1.297-28.591-3.601-42.387
	C501.401,199.282,492.974,188.843,483.902,188.843z"/>
<path style="fill:#E6C35A;" d="M483.902,188.843c-6.087,0-11.882,4.705-17.152,12.124h0.001c22.191,0,40.181,68.216,40.181,90.408
	c0,19.303-13.624,35.397-31.772,39.268c2.826,0.571,5.747,0.881,8.741,0.881c6.327,0,12.327-1.365,17.761-3.774
	C508.34,304.983,512,280.933,512,256c0-14.453-1.297-28.591-3.601-42.388C501.401,199.282,492.974,188.843,483.902,188.843z"/>
<path style="fill:#8DDCE1;" d="M216,400c-9,29-61,43-88.128,77.616C165.561,499.454,209.306,512,256,512
	c18.591,0,36.718-1.984,54.184-5.748C377.667,424.333,218.371,392.359,216,400z"/>
<g>
</g>
<g>
</g>
<g>
</g>
<g>
</g>
<g>
</g>
<g>
</g>
<g>
</g>
<g>
</g>
<g>
</g>
<g>
</g>
<g>
</g>
<g>
</g>
<g>
</g>
<g>
</g>
<g>
</g>
</svg>
